<svg xmlns="http://www.w3.org/2000/svg" xmlns:xlink="http://www.w3.org/1999/xlink" width="500" zoomAndPan="magnify" viewBox="0 0 375 374.999991" height="500" preserveAspectRatio="xMidYMid meet" version="1.0"><defs><g/><clipPath id="6985cc5a8d"><path d="M 63.933594 89.425781 L 219.933594 89.425781 L 219.933594 276.925781 L 63.933594 276.925781 Z M 63.933594 89.425781 " clip-rule="nonzero"/></clipPath></defs><g clip-path="url(#6985cc5a8d)"><path fill="#000000" d="M 63.933594 210.558594 C 63.933594 192.785156 68.734375 178.371094 76.414062 167.320312 C 76.414062 189.179688 81.691406 196.867188 93.214844 196.867188 C 100.894531 196.867188 108.8125 191.101562 108.8125 181.253906 C 108.8125 172.367188 102.8125 156.269531 102.8125 138.976562 C 102.8125 121.679688 108.574219 103.183594 132.09375 89.492188 C 126.8125 103.421875 124.652344 115.195312 124.652344 124.804688 C 124.652344 150.265625 140.011719 161.796875 153.691406 161.796875 C 164.734375 161.796875 176.253906 154.589844 176.253906 133.691406 C 183.691406 141.859375 187.054688 151.226562 187.054688 160.59375 C 187.054688 175.488281 178.894531 188.699219 178.894531 200.710938 C 178.894531 210.558594 186.8125 216.324219 194.492188 216.324219 C 208.171875 216.324219 212.253906 204.074219 212.253906 183.894531 C 216.332031 190.863281 219.933594 204.554688 219.933594 216.324219 C 219.933594 251.398438 186.8125 276.859375 149.851562 276.859375 C 181.054688 265.089844 186.8125 249.476562 186.8125 231.9375 C 179.132812 245.632812 171.214844 247.554688 167.371094 247.554688 C 143.851562 247.554688 169.292969 202.632812 128.253906 171.40625 C 134.972656 185.816406 137.613281 198.308594 137.613281 208.398438 C 137.613281 230.015625 125.851562 241.789062 114.574219 241.789062 C 104.972656 241.789062 95.371094 234.101562 91.53125 217.765625 C 91.53125 240.585938 98.253906 262.207031 128.253906 276.859375 C 81.453125 269.171875 63.933594 239.867188 63.933594 210.558594 Z M 63.933594 210.558594 " fill-opacity="1" fill-rule="nonzero"/></g><g fill="#000000" fill-opacity="1"><g transform="translate(200.681068, 281.903363)"><g><path d="M 5.253906 1.984375 C 7.878906 1.984375 11.019531 -1.601562 11.019531 -4.164062 C 11.019531 -4.546875 10.953125 -4.933594 10.890625 -5.316406 C 11.050781 -5.734375 10.953125 -5.957031 10.761719 -6.34375 C 10.761719 -6.824219 10.570312 -7.207031 10.1875 -7.496094 L 10.1875 -7.558594 C 9.257812 -7.878906 8.90625 -8.328125 7.847656 -8.488281 C 9.191406 -9.417969 10.699219 -11.722656 10.699219 -13.355469 C 10.699219 -14.863281 9.578125 -16.144531 8.039062 -16.144531 C 2.433594 -16.144531 5.222656 -15.183594 1.699219 -14.636719 C 1.472656 -12.300781 1.378906 -9.960938 1.21875 -7.625 C 1.183594 -7.046875 0.960938 -6.46875 0.960938 -5.894531 C 0.960938 -4.804688 0.863281 -3.683594 0.863281 -2.625 C 0.863281 -1.824219 0.640625 -1.058594 0.640625 -0.320312 C 0.640625 0.0976562 1.121094 0.800781 1.601562 0.800781 C 1.890625 0.800781 2.144531 0.640625 2.371094 0.511719 C 2.851562 1.25 4.386719 1.984375 5.253906 1.984375 Z M 5.316406 -6.566406 C 6.054688 -6.566406 6.824219 -6.597656 7.429688 -6.726562 L 7.496094 -6.46875 C 7.945312 -6.308594 8.136719 -5.765625 8.136719 -5.347656 C 8.136719 -3.875 6.34375 -0.0976562 4.773438 -0.0976562 C 4.355469 -0.0976562 3.78125 -0.480469 3.460938 -0.738281 C 3.460938 -1.089844 3.332031 -1.378906 3.332031 -1.730469 C 3.332031 -1.984375 4.066406 -6.246094 4.132812 -6.566406 Z M 4.835938 -14.09375 L 4.964844 -14.09375 C 5.476562 -14.445312 6.277344 -14.957031 6.917969 -14.957031 C 7.304688 -14.925781 7.945312 -14.671875 7.945312 -14.222656 C 7.945312 -11.914062 6.34375 -9.738281 4.226562 -8.90625 C 4.195312 -9.609375 4.355469 -10.378906 4.261719 -11.082031 C 4.355469 -11.402344 4.453125 -11.722656 4.453125 -12.042969 C 4.453125 -12.523438 4.355469 -13.035156 4.355469 -13.515625 Z M 4.835938 -14.09375 "/></g></g></g><g fill="#000000" fill-opacity="1"><g transform="translate(212.302322, 281.903363)"><g><path d="M 4.386719 -1.34375 L 3.90625 -1.21875 L 4.164062 -1.539062 L 4.101562 -1.539062 L 4.132812 -1.570312 L 3.941406 -1.890625 C 4.003906 -2.113281 3.90625 -2.273438 3.90625 -2.5 C 3.90625 -2.691406 3.941406 -2.914062 3.972656 -3.105469 L 3.941406 -3.140625 C 4.164062 -4.164062 4.902344 -9.226562 4.902344 -10.25 C 4.902344 -10.667969 4.867188 -11.179688 4.804688 -11.59375 L 4.835938 -11.59375 C 4.742188 -11.753906 4.742188 -11.59375 4.835938 -11.882812 C 4.996094 -12.332031 5.125 -12.78125 5.125 -13.261719 L 5.15625 -15.726562 C 5.15625 -16.335938 3.714844 -17.105469 3.171875 -17.105469 C 2.144531 -17.105469 1.921875 -11.980469 1.859375 -11.179688 C 1.699219 -9.160156 1.441406 -6.917969 1.058594 -4.933594 C 0.898438 -4.164062 0.578125 -3.234375 0.578125 -2.433594 C 0.578125 -2.179688 0.640625 -1.921875 0.640625 -1.664062 C 0.640625 -0.703125 -0.160156 -0.832031 -0.160156 -0.128906 C -0.03125 0.03125 0.222656 0.128906 0.417969 0.191406 C 0.640625 0.542969 1.570312 0.609375 1.953125 0.609375 C 2.945312 0.609375 9.960938 0.382812 9.960938 -0.832031 C 9.960938 -1.21875 9.609375 -1.441406 9.257812 -1.441406 C 8.328125 -1.441406 7.398438 -1.21875 6.46875 -1.21875 C 5.988281 -1.21875 5.476562 -1.28125 4.996094 -1.28125 C 4.742188 -1.28125 4.515625 -1.25 4.292969 -1.21875 Z M 4.386719 -1.34375 "/></g></g></g><g fill="#000000" fill-opacity="1"><g transform="translate(222.899135, 281.903363)"><g><path d="M 10.601562 -8.136719 C 10.601562 -9.066406 10.730469 -10.21875 10.632812 -11.148438 C 10.570312 -11.691406 10.25 -12.332031 10.1875 -12.875 C 10.058594 -14.222656 10.3125 -16.433594 8.679688 -17.007812 L 7.429688 -17.234375 L 7.304688 -17.167969 L 7.109375 -17.199219 C 6.917969 -17.105469 6.664062 -16.914062 6.628906 -16.6875 C 5.667969 -15.214844 4.675781 -13.710938 4.132812 -12.011719 C 3.554688 -10.21875 3.332031 -7.335938 2.5 -5.765625 C 2.339844 -5.476562 2.050781 -5.285156 1.761719 -5.253906 L 1.34375 -5.253906 C 1.152344 -5.15625 1.121094 -4.902344 1.152344 -4.742188 C 1.152344 -4.515625 1.21875 -4.226562 1.410156 -4.066406 L 1.761719 -4.101562 C 1.378906 -3.363281 1.183594 -2.53125 0.769531 -1.824219 C 0.480469 -1.34375 0 -1.023438 -0.289062 -0.449219 L -0.320312 -0.222656 C -0.191406 -0.0976562 -0.0625 0.128906 -0.0625 0.320312 C 0 0.898438 -0.222656 1.539062 -0.160156 2.113281 C -0.128906 2.304688 0.0625 2.464844 0.222656 2.53125 C 0.738281 2.5 2.113281 -0.417969 2.082031 -0.832031 C 2.304688 -1.378906 2.5625 -1.953125 3.042969 -2.371094 L 3.8125 -4.195312 C 5.0625 -4.484375 6.628906 -4.996094 7.878906 -5.125 L 7.976562 -5.15625 C 7.816406 -3.941406 7.816406 -2.691406 7.945312 -1.472656 C 8.039062 -0.609375 8.488281 0.640625 8.777344 1.410156 C 9.226562 1.824219 10.25 3.011719 11.019531 3.011719 L 11.113281 3.011719 C 11.371094 2.980469 11.53125 2.753906 11.820312 2.722656 L 12.011719 2.53125 C 12.074219 2.339844 12.300781 2.144531 12.269531 1.953125 C 12.074219 0.320312 11.273438 -1.21875 11.210938 -2.882812 L 11.148438 -3.011719 C 11.273438 -3.972656 10.890625 -5.507812 10.699219 -6.566406 L 10.761719 -6.566406 L 10.921875 -6.789062 C 11.148438 -6.949219 11.5625 -7.015625 11.628906 -7.335938 L 11.433594 -7.71875 C 11.210938 -7.625 10.953125 -7.496094 10.699219 -7.464844 C 10.667969 -7.6875 10.601562 -7.910156 10.601562 -8.136719 Z M 4.292969 -5.734375 C 4.421875 -8.070312 6.246094 -11.53125 6.984375 -13.835938 C 7.207031 -13.261719 7.429688 -12.621094 7.496094 -11.980469 C 7.625 -10.632812 7.398438 -9.066406 7.558594 -7.71875 C 7.589844 -7.398438 7.6875 -7.046875 7.75 -6.726562 C 6.855469 -6.214844 5.347656 -5.828125 4.292969 -5.734375 Z M 4.292969 -5.734375 "/></g></g></g><g fill="#000000" fill-opacity="1"><g transform="translate(235.256725, 281.903363)"><g><path d="M 2.464844 -12.941406 C 2.242188 -12.554688 2.019531 -12.140625 1.824219 -11.691406 L 1.664062 -11.339844 C 1.441406 -10.859375 1.28125 -10.378906 1.152344 -9.867188 L 1.089844 -9.707031 L 0.609375 -7.335938 L 0.542969 -6.664062 L 0.542969 -6.46875 C 0.480469 -6.117188 0.480469 -5.765625 0.480469 -5.382812 L 0.480469 -4.933594 C 0.480469 -4.582031 0.480469 -4.195312 0.542969 -3.84375 L 0.609375 -3.492188 C 0.671875 -3.074219 0.929688 -2.242188 1.121094 -1.859375 L 1.3125 -1.441406 L 1.730469 -0.863281 L 2.433594 -0.257812 C 2.660156 -0.128906 2.882812 0 3.140625 0.0976562 C 3.554688 0.351562 4.003906 0.542969 4.386719 0.640625 C 4.484375 0.703125 4.707031 0.738281 4.835938 0.738281 L 5.253906 0.738281 C 5.507812 0.738281 5.796875 0.671875 6.148438 0.578125 C 6.183594 0.578125 6.246094 0.542969 6.308594 0.511719 L 7.175781 0.191406 L 7.496094 0 C 7.847656 -0.160156 8.136719 -0.320312 8.457031 -0.609375 L 8.710938 -0.832031 C 8.777344 -0.898438 8.839844 -0.929688 8.871094 -0.992188 C 9.066406 -1.121094 9.226562 -1.25 9.351562 -1.410156 L 9.800781 -1.761719 C 9.960938 -1.859375 10.089844 -1.984375 10.21875 -2.113281 C 10.25 -2.144531 10.25 -2.179688 10.3125 -2.210938 L 10.410156 -2.339844 L 10.441406 -2.339844 C 10.539062 -2.433594 10.730469 -2.722656 10.792969 -2.851562 C 10.890625 -2.945312 11.050781 -3.171875 11.082031 -3.300781 L 11.179688 -3.554688 C 11.242188 -3.621094 11.242188 -3.683594 11.273438 -3.746094 L 11.273438 -3.90625 C 11.273438 -3.941406 11.273438 -4.003906 11.242188 -4.066406 C 11.242188 -4.195312 11.210938 -4.324219 11.179688 -4.421875 L 11.050781 -4.675781 C 10.988281 -4.675781 10.953125 -4.707031 10.890625 -4.707031 C 10.792969 -4.707031 10.699219 -4.675781 10.601562 -4.644531 L 10.410156 -4.546875 C 10.21875 -4.421875 10.027344 -4.292969 9.832031 -4.066406 L 9.226562 -3.140625 L 8.710938 -2.5625 L 7.945312 -1.921875 C 7.816406 -1.824219 7.304688 -1.539062 7.144531 -1.539062 C 6.917969 -1.441406 6.628906 -1.34375 6.4375 -1.34375 C 6.054688 -1.34375 5.347656 -1.761719 5.09375 -2.082031 L 4.933594 -2.273438 C 4.902344 -2.339844 4.835938 -2.402344 4.804688 -2.5 C 4.582031 -2.753906 4.386719 -3.074219 4.195312 -3.460938 C 4.132812 -3.554688 4.035156 -3.683594 4.003906 -3.8125 C 3.875 -4.101562 3.8125 -4.421875 3.714844 -4.707031 C 3.652344 -4.835938 3.621094 -4.964844 3.585938 -5.09375 L 3.585938 -5.253906 C 3.585938 -5.316406 3.554688 -5.347656 3.554688 -5.414062 C 3.523438 -5.574219 3.523438 -5.703125 3.523438 -5.828125 C 3.523438 -5.925781 3.554688 -5.988281 3.554688 -6.085938 L 3.652344 -6.46875 C 3.652344 -6.566406 3.683594 -6.664062 3.714844 -6.757812 L 3.972656 -7.878906 C 4.132812 -8.488281 4.324219 -9.097656 4.515625 -9.671875 C 4.613281 -9.960938 4.773438 -10.25 4.867188 -10.539062 L 5.476562 -11.914062 L 5.796875 -12.460938 C 5.828125 -12.492188 5.828125 -12.554688 5.863281 -12.621094 C 6.054688 -12.972656 6.246094 -13.261719 6.4375 -13.515625 C 6.628906 -13.804688 6.824219 -14.03125 7.046875 -14.253906 C 7.269531 -14.445312 7.496094 -14.636719 7.6875 -14.734375 C 7.785156 -14.796875 7.910156 -14.832031 8.007812 -14.863281 L 8.167969 -14.863281 C 8.390625 -14.765625 8.488281 -14.316406 8.488281 -14.125 L 8.777344 -14.03125 C 8.9375 -13.964844 9.097656 -13.933594 9.226562 -13.902344 C 9.226562 -13.835938 9.257812 -13.804688 9.257812 -13.804688 L 9.386719 -13.871094 C 9.417969 -13.835938 9.480469 -13.835938 9.511719 -13.835938 L 9.546875 -13.835938 C 9.640625 -13.871094 9.707031 -13.933594 9.769531 -13.964844 C 9.832031 -13.964844 9.992188 -14.445312 9.992188 -14.511719 L 10.121094 -14.703125 C 10.152344 -14.832031 10.121094 -14.957031 10.089844 -15.085938 C 9.992188 -15.375 9.769531 -15.597656 9.480469 -15.726562 L 9.128906 -15.855469 C 9.066406 -15.855469 9.03125 -15.886719 8.96875 -15.917969 L 8.550781 -16.015625 C 8.328125 -16.078125 8.136719 -16.144531 7.976562 -16.144531 L 7.527344 -16.144531 C 7.398438 -16.144531 7.269531 -16.113281 7.144531 -16.113281 C 7.078125 -16.113281 7.015625 -16.078125 6.949219 -16.078125 L 6.535156 -15.984375 C 6.023438 -15.855469 5.476562 -15.664062 5.027344 -15.40625 C 4.644531 -15.214844 4.324219 -14.992188 4.035156 -14.734375 L 3.621094 -14.382812 C 3.234375 -14.03125 2.914062 -13.582031 2.5625 -13.101562 Z M 2.464844 -12.941406 "/></g></g></g><g fill="#000000" fill-opacity="1"><g transform="translate(246.429774, 281.903363)"><g><path d="M 8.136719 0.800781 C 8.328125 0.992188 9.898438 2.722656 10.152344 2.691406 C 10.730469 3.105469 11.46875 3.554688 12.203125 3.554688 C 12.554688 3.554688 12.78125 3.203125 13.003906 2.980469 C 13.484375 2.980469 13.933594 2.371094 13.933594 1.921875 C 13.933594 1.410156 13.453125 1.21875 13.035156 1.089844 L 12.78125 1.121094 C 12.011719 0.511719 9.867188 -0.832031 9.546875 -1.601562 C 9.226562 -1.699219 8.96875 -2.179688 8.777344 -2.433594 C 8.519531 -3.300781 7.175781 -4.261719 6.4375 -4.675781 C 6.183594 -5.382812 5.863281 -6.085938 5.636719 -6.789062 C 6.023438 -7.335938 7.269531 -7.816406 7.878906 -8.390625 C 8.9375 -9.417969 13.164062 -12.714844 13.164062 -14.0625 C 13.164062 -14.894531 12.910156 -15.726562 11.949219 -15.726562 C 11.371094 -15.726562 10.792969 -14.382812 10.472656 -13.964844 C 9.257812 -12.429688 7.398438 -10.058594 5.828125 -8.9375 C 5.253906 -8.871094 4.996094 -8.359375 4.546875 -8.230469 L 4.453125 -8.265625 C 4.484375 -10.472656 5.15625 -12.75 5.15625 -14.992188 C 5.15625 -15.3125 5.0625 -15.632812 4.804688 -15.824219 C 4.546875 -16.304688 4.066406 -16.847656 3.492188 -16.847656 C 3.042969 -16.847656 2.242188 -15.214844 2.402344 -14.894531 L 2.339844 -14.636719 L 2.371094 -14.511719 C 1.953125 -11.53125 1.3125 -8.617188 0.863281 -5.636719 C 0.578125 -3.84375 0.542969 -1.664062 0.542969 0.160156 C 0.542969 0.609375 1.570312 1.601562 1.953125 1.824219 C 4.292969 0.640625 3.074219 -3.394531 4.195312 -5.445312 C 5.027344 -4.324219 6.824219 0.03125 7.878906 0.351562 C 7.945312 0.480469 8.136719 0.671875 8.136719 0.800781 Z M 8.136719 0.800781 "/></g></g></g><g fill="#000000" fill-opacity="1"><g transform="translate(259.587715, 281.903363)"><g/></g></g><g fill="#000000" fill-opacity="1"><g transform="translate(265.702528, 281.903363)"><g><path d="M 5.027344 -10.730469 C 5.027344 -11.980469 4.773438 -13.292969 4.773438 -14.511719 C 4.773438 -14.605469 4.804688 -14.671875 4.804688 -14.765625 C 6.085938 -15.183594 11.660156 -14.476562 11.660156 -16.144531 C 11.660156 -16.433594 11.179688 -16.625 10.953125 -16.6875 C 9.03125 -16.464844 7.144531 -16.398438 5.1875 -16.398438 C 5.09375 -16.398438 4.933594 -16.433594 4.867188 -16.527344 L 4.902344 -16.785156 L 4.261719 -16.945312 L 4.292969 -16.976562 C 3.78125 -16.976562 3.140625 -16.945312 2.753906 -16.558594 C 2.691406 -16.558594 2.625 -16.558594 2.5625 -16.527344 C 2.371094 -16.59375 2.144531 -16.558594 1.953125 -16.59375 L 1.378906 -16.273438 L 1.28125 -16.304688 C 1.023438 -16.207031 0.578125 -15.917969 0.578125 -15.597656 C 0.578125 -15.34375 0.832031 -15.183594 1.058594 -15.117188 C 1.183594 -15.152344 1.378906 -15.183594 1.539062 -15.183594 C 1.953125 -15.183594 2.339844 -15.054688 2.339844 -14.671875 C 2.339844 -13.164062 1.921875 -11.59375 1.921875 -10.121094 C 1.921875 -9.066406 0.863281 -9.832031 0.863281 -8.9375 C 0.863281 -8.519531 1.183594 -8.390625 1.539062 -8.390625 L 1.730469 -8.425781 L 1.890625 -8.296875 C 1.890625 -7.015625 1.632812 -5.703125 1.632812 -4.484375 L 1.570312 -4.355469 C 1.570312 -2.882812 1.3125 -1.410156 1.3125 0.0625 C 1.3125 0.738281 1.824219 1.730469 2.5625 1.730469 C 2.851562 1.441406 3.140625 1.21875 3.332031 0.832031 L 3.363281 0.351562 L 3.714844 -0.03125 C 4.226562 -0.0976562 4.035156 -1.824219 4.195312 -2.050781 C 4.132812 -2.304688 4.386719 -5.09375 4.484375 -5.542969 L 4.453125 -5.507812 C 4.453125 -6.023438 4.582031 -6.664062 4.707031 -7.175781 L 4.742188 -7.175781 C 4.707031 -7.304688 4.707031 -7.75 4.804688 -7.847656 L 4.707031 -8.199219 L 4.804688 -8.359375 C 4.933594 -8.328125 5.09375 -8.328125 5.285156 -8.328125 C 6.214844 -8.328125 7.910156 -8.617188 8.230469 -8.9375 L 8.328125 -8.90625 L 8.488281 -8.9375 L 8.648438 -8.90625 L 8.9375 -9.320312 C 8.9375 -9.351562 8.9375 -9.449219 8.96875 -9.449219 C 8.9375 -9.671875 8.777344 -10.058594 8.488281 -10.058594 C 8.039062 -10.058594 4.742188 -9.769531 4.675781 -9.738281 C 4.742188 -10.089844 5.027344 -10.378906 5.027344 -10.730469 Z M 5.027344 -10.730469 "/></g></g></g><g fill="#000000" fill-opacity="1"><g transform="translate(276.875577, 281.903363)"><g><path d="M 5.0625 -13.355469 C 5.0625 -14.542969 4.707031 -17.234375 3.042969 -17.234375 C 2.914062 -17.234375 2.722656 -17.167969 2.722656 -17.007812 C 2.691406 -17.039062 2.625 -17.039062 2.59375 -17.039062 C 1.730469 -17.039062 1.664062 -12.75 1.664062 -12.621094 C 1.632812 -12.332031 1.699219 -12.011719 1.570312 -11.722656 C 1.570312 -11.628906 1.539062 -11.53125 1.539062 -11.433594 C 1.539062 -8.488281 0.769531 -5.542969 0.769531 -2.753906 C 0.769531 -2.144531 0.480469 -1.570312 0.480469 -0.929688 C 0.480469 -0.800781 0.480469 -0.671875 0.511719 -0.578125 L 0.609375 -0.449219 C 0.671875 -0.128906 1.183594 0.351562 1.441406 0.578125 C 1.503906 0.578125 2.019531 0.832031 2.082031 0.832031 C 2.144531 0.898438 2.179688 0.929688 2.242188 0.929688 C 2.625 0.929688 3.203125 -0.222656 3.203125 -2.210938 C 3.203125 -4.164062 4.035156 -6.308594 4.324219 -8.265625 C 4.261719 -8.296875 4.324219 -8.390625 4.355469 -8.425781 C 4.386719 -9.511719 4.773438 -10.730469 4.773438 -11.082031 C 4.773438 -11.308594 4.742188 -11.5 4.707031 -11.722656 L 4.742188 -11.722656 L 4.707031 -11.789062 C 4.933594 -12.234375 5.0625 -12.875 5.0625 -13.355469 Z M 5.0625 -13.355469 "/></g></g></g><g fill="#000000" fill-opacity="1"><g transform="translate(282.478168, 281.903363)"><g><path d="M 11.210938 0.03125 C 11.050781 -0.0976562 10.953125 -0.320312 10.921875 -0.511719 C 10.859375 -0.640625 10.28125 -1.730469 10.378906 -1.824219 L 10.25 -2.050781 L 10.28125 -2.113281 C 10.058594 -2.402344 9.707031 -2.820312 9.609375 -3.140625 C 9.320312 -3.460938 9.066406 -3.746094 8.839844 -4.101562 C 8.839844 -4.421875 8.457031 -4.515625 8.390625 -4.804688 C 7.976562 -6.535156 7.816406 -6.277344 7.589844 -8.105469 C 8.039062 -8.390625 8.457031 -8.746094 8.90625 -9 C 10.121094 -10.828125 11.210938 -11.433594 11.210938 -13.902344 C 11.210938 -14.414062 11.019531 -15.023438 10.632812 -15.40625 C 10.089844 -15.664062 10.089844 -16.914062 8.007812 -16.914062 C 7.785156 -16.914062 7.589844 -16.914062 7.367188 -16.976562 C 6.917969 -16.65625 6.40625 -16.367188 6.085938 -15.886719 C 5.382812 -15.695312 5.222656 -15.117188 4.773438 -14.671875 C 4.707031 -14.832031 4.675781 -15.023438 4.707031 -15.183594 C 4.421875 -15.757812 3.90625 -16.078125 3.300781 -16.273438 L 3.042969 -16.207031 L 3.105469 -16.335938 L 3.074219 -16.335938 C 2.59375 -16.335938 1.503906 -15.917969 1.503906 -15.3125 C 1.3125 -15.277344 1.183594 -15.117188 1.183594 -14.925781 C 1.183594 -14.796875 1.25 -14.671875 1.28125 -14.542969 C 1.25 -14.382812 1.378906 -13.964844 1.410156 -13.773438 L 1.34375 -13.453125 C 1.378906 -13.324219 1.441406 -13.132812 1.441406 -13.003906 C 1.441406 -12.714844 1.28125 -12.460938 1.25 -12.171875 C 1.121094 -10.828125 1.183594 -9.289062 1.152344 -7.945312 C 1.089844 -5.507812 0.578125 -3.171875 0.578125 -0.769531 C 0.578125 -0.351562 1.152344 0.960938 1.632812 0.960938 C 1.890625 0.960938 2.113281 0.703125 2.339844 0.609375 C 2.5 0.671875 2.753906 0.738281 3.011719 0.738281 C 3.460938 0.738281 3.90625 0.578125 3.90625 0.128906 C 3.8125 -0.0976562 3.683594 -0.351562 3.683594 -0.609375 C 3.683594 -1.3125 4.261719 -2.945312 4.421875 -3.652344 C 4.546875 -4.132812 4.226562 -6.246094 5.0625 -6.246094 L 5.222656 -6.214844 L 5.414062 -5.957031 L 5.382812 -5.894531 C 5.347656 -5.253906 6.824219 -2.753906 7.109375 -2.113281 C 7.71875 -0.769531 9.066406 3.652344 11.210938 3.652344 C 11.980469 3.652344 12.234375 2.914062 12.234375 2.242188 C 12.140625 2.082031 12.011719 1.824219 11.980469 1.632812 C 11.949219 1.699219 11.851562 1.730469 11.851562 1.601562 L 11.882812 1.601562 L 11.53125 0.992188 L 11.5625 0.960938 C 11.53125 0.929688 11.433594 0.769531 11.433594 0.703125 C 11.433594 0.289062 11.179688 0.351562 11.179688 0.0625 Z M 8.199219 -13.933594 C 8.199219 -12.011719 7.109375 -8.9375 5.09375 -8.265625 L 4.933594 -8.648438 C 4.902344 -8.648438 4.804688 -8.585938 4.835938 -8.550781 C 4.515625 -8.585938 4.324219 -8.746094 4.324219 -9.066406 C 4.324219 -11.46875 4.195312 -14.832031 7.527344 -14.832031 C 8.105469 -14.832031 8.199219 -14.445312 8.199219 -13.933594 Z M 8.199219 -13.933594 "/></g></g></g><g fill="#000000" fill-opacity="1"><g transform="translate(293.939347, 281.903363)"><g><path d="M 6.40625 -8.519531 C 6.917969 -8.519531 7.398438 -8.550781 7.847656 -8.746094 C 7.976562 -8.746094 8.136719 -8.746094 8.265625 -8.710938 C 8.585938 -8.808594 8.746094 -9.257812 8.839844 -9.546875 C 8.746094 -9.800781 8.617188 -10.1875 8.265625 -10.1875 C 8.007812 -10.1875 7.75 -10.152344 7.496094 -10.152344 C 7.367188 -10.089844 4.707031 -9.832031 4.386719 -9.832031 C 4.484375 -10.21875 4.773438 -10.570312 4.773438 -10.953125 C 4.773438 -11.789062 4.515625 -14.0625 4.933594 -14.734375 L 4.933594 -14.863281 C 5.0625 -15.117188 8.488281 -15.214844 9.066406 -15.214844 C 9.289062 -15.214844 9.511719 -15.214844 9.738281 -15.34375 L 9.992188 -15.566406 C 10.121094 -15.535156 10.21875 -15.503906 10.3125 -15.503906 C 10.667969 -15.503906 10.953125 -15.726562 10.953125 -16.144531 C 10.953125 -16.496094 10.730469 -16.59375 10.410156 -16.59375 L 10.1875 -16.6875 C 10.089844 -16.65625 7.65625 -16.558594 6.117188 -16.558594 C 5.476562 -16.558594 4.964844 -16.558594 4.867188 -16.625 L 4.902344 -16.878906 C 4.742188 -17.105469 4.261719 -17.105469 4.003906 -17.105469 C 3.875 -17.105469 3.746094 -17.105469 3.621094 -17.136719 L 3.363281 -17.074219 C 3.203125 -17.167969 2.980469 -17.199219 2.820312 -17.199219 L 2.5625 -17.007812 L 2.433594 -16.65625 L 1.664062 -10.347656 C 1.664062 -10.21875 1.664062 -10.058594 1.699219 -9.929688 C 1.441406 -9.738281 0.929688 -9.707031 0.929688 -9.289062 C 0.929688 -8.710938 1.601562 -8.617188 1.601562 -8.425781 C 1.601562 -6.375 1.28125 -4.261719 1.121094 -2.210938 C 1.089844 -1.792969 0.671875 -1.472656 0.671875 -1.023438 L 0.800781 -0.703125 L 0.738281 -0.609375 C 0.960938 -0.289062 1.21875 0.0976562 1.632812 0.0976562 C 1.730469 0.0976562 2.113281 -0.0625 2.210938 -0.0976562 L 2.242188 -0.160156 C 2.304688 -0.03125 2.433594 0.0625 2.59375 0.0625 L 2.980469 -0.222656 C 4.292969 -0.289062 5.863281 -0.191406 7.144531 -0.480469 C 7.269531 -0.449219 7.398438 -0.417969 7.527344 -0.417969 C 8.488281 -0.417969 9.800781 -1.152344 9.800781 -2.113281 C 9.800781 -2.59375 9.738281 -2.980469 9.160156 -2.980469 C 7.816406 -2.980469 5.828125 -2.242188 4.324219 -2.082031 L 4.292969 -2.050781 L 4.035156 -2.113281 L 3.746094 -1.984375 L 3.652344 -1.984375 C 3.941406 -3.203125 4.066406 -5.414062 4.066406 -6.628906 L 4.035156 -6.628906 L 4.035156 -6.886719 L 4.226562 -7.078125 L 4.101562 -7.6875 L 4.226562 -7.847656 L 4.226562 -8.136719 L 4.355469 -8.457031 L 5.09375 -8.390625 L 5.253906 -8.585938 L 5.476562 -8.488281 L 5.507812 -8.519531 Z M 6.40625 -8.519531 "/></g></g></g><g fill="#000000" fill-opacity="1"><g transform="translate(305.002223, 281.903363)"><g/></g></g><g fill="#000000" fill-opacity="1"><g transform="translate(141.029088, 135.36361)"><g><path d="M 31.230469 -6.015625 C 31.230469 -6.738281 31.375 -7.824219 31.375 -8.621094 C 31.300781 -8.914062 31.230469 -9.203125 31.230469 -9.492188 L 31.085938 -9.492188 C 30.941406 -9.855469 30.796875 -10.363281 30.722656 -10.796875 C 30.722656 -11.085938 30.722656 -11.375 30.796875 -11.664062 C 30.867188 -11.957031 31.085938 -11.882812 31.15625 -12.027344 L 31.15625 -16.085938 C 31.085938 -16.375 31.085938 -16.738281 31.085938 -17.027344 C 31.085938 -19.417969 31.15625 -21.808594 31.085938 -24.128906 L 31.011719 -24.128906 C 31.011719 -24.203125 31.011719 -24.273438 31.085938 -24.347656 L 31.085938 -24.492188 C 31.011719 -25.359375 30.941406 -26.304688 30.941406 -26.882812 C 30.941406 -27.824219 30.941406 -28.839844 30.722656 -29.925781 C 30.722656 -30.289062 30.652344 -30.652344 30.652344 -31.011719 C 30.578125 -31.449219 30.433594 -31.882812 30.289062 -32.316406 C 30.070312 -32.824219 29.78125 -33.257812 29.347656 -33.621094 C 28.910156 -34.054688 28.332031 -34.347656 27.605469 -34.417969 C 27.535156 -34.492188 27.390625 -34.492188 27.316406 -34.492188 C 27.246094 -34.492188 27.171875 -34.492188 27.101562 -34.417969 C 26.882812 -34.417969 26.738281 -34.347656 26.59375 -34.199219 C 26.085938 -33.910156 25.578125 -33.257812 25.070312 -32.460938 L 24.636719 -31.808594 C 24.203125 -31.085938 23.695312 -30.359375 23.257812 -29.492188 L 22.96875 -28.910156 C 22.753906 -28.550781 22.535156 -28.1875 22.390625 -27.824219 L 20.941406 -25 L 19.925781 -22.753906 C 19.710938 -22.460938 19.5625 -22.027344 19.347656 -21.738281 C 18.839844 -20.722656 18.40625 -19.78125 18.113281 -18.984375 C 18.042969 -18.910156 18.042969 -18.765625 17.96875 -18.621094 C 17.753906 -18.042969 17.679688 -17.390625 17.460938 -16.738281 C 17.316406 -16.375 17.246094 -16.011719 16.957031 -15.796875 L 16.59375 -17.246094 C 16.230469 -18.332031 15.796875 -19.417969 15.433594 -20.433594 C 15.214844 -21.085938 14.925781 -21.664062 14.710938 -22.246094 L 14.058594 -23.839844 C 13.914062 -24.203125 13.765625 -24.492188 13.695312 -24.855469 L 13.1875 -25.941406 C 13.1875 -26.085938 13.113281 -26.230469 13.042969 -26.304688 C 12.101562 -28.910156 10.578125 -32.75 9.058594 -34.996094 C 8.117188 -36.230469 7.171875 -36.808594 5.578125 -36.808594 C 5.433594 -36.738281 5.289062 -36.59375 5.289062 -36.375 C 5.21875 -36.300781 5.070312 -36.300781 5 -36.300781 C 4.710938 -36.300781 4.492188 -36.15625 4.347656 -35.941406 C 4.273438 -35.796875 4.273438 -35.648438 4.273438 -35.503906 L 3.914062 -32.96875 C 3.839844 -32.316406 3.769531 -31.59375 3.769531 -30.867188 C 3.695312 -30.359375 3.695312 -29.851562 3.695312 -29.347656 C 3.695312 -28.621094 3.621094 -27.898438 3.550781 -27.171875 L 3.550781 -26.15625 C 3.550781 -25.867188 3.476562 -25.578125 3.476562 -25.289062 C 3.476562 -24.707031 3.40625 -24.273438 3.40625 -23.765625 L 3.40625 -23.621094 C 3.332031 -21.375 2.898438 -19.128906 2.753906 -17.101562 C 2.824219 -16.8125 2.824219 -16.449219 2.824219 -16.085938 C 2.824219 -16.011719 2.753906 -15.867188 2.679688 -15.652344 C 2.679688 -15.433594 2.679688 -15.144531 2.609375 -14.855469 L 2.609375 -14.417969 C 2.464844 -14.128906 2.390625 -13.765625 2.390625 -13.332031 C 2.246094 -12.679688 2.246094 -12.027344 2.101562 -11.304688 L 1.8125 -8.695312 C 1.8125 -8.550781 1.738281 -8.332031 1.738281 -8.117188 C 1.59375 -6.449219 1.523438 -4.925781 1.523438 -3.332031 C 1.667969 -2.679688 1.957031 -2.171875 2.464844 -1.59375 C 2.464844 -1.160156 2.535156 -0.796875 2.535156 -0.433594 C 2.609375 -0.289062 2.609375 0 2.679688 0.0742188 C 2.972656 0.871094 3.550781 1.304688 4.347656 1.59375 C 4.636719 1.667969 5 1.738281 5.363281 1.738281 C 5.433594 1.8125 5.578125 1.882812 5.796875 1.882812 C 5.941406 1.882812 6.230469 1.667969 6.449219 1.375 C 6.519531 1.304688 6.59375 1.230469 6.59375 1.160156 C 6.8125 0.871094 7.027344 0.507812 7.171875 0.144531 C 7.390625 -0.363281 7.535156 -0.941406 7.679688 -1.304688 C 7.679688 -1.667969 7.824219 -2.101562 7.824219 -2.535156 C 7.898438 -2.898438 7.96875 -3.261719 7.96875 -3.695312 C 8.042969 -5 8.042969 -6.449219 8.042969 -7.753906 L 8.042969 -11.882812 L 8.40625 -13.984375 L 8.550781 -15.214844 C 8.550781 -15.433594 8.695312 -15.722656 8.695312 -16.011719 L 9.203125 -19.273438 C 9.347656 -20.070312 9.347656 -20.867188 9.417969 -21.664062 L 12.246094 -15.144531 C 12.679688 -14.128906 13.042969 -13.1875 13.476562 -12.316406 C 13.765625 -11.59375 13.984375 -10.941406 14.058594 -10.433594 C 14.058594 -10.289062 14.058594 -10.144531 14.128906 -10.070312 C 13.839844 -9.203125 14.5625 -8.332031 15.433594 -8.042969 C 15.652344 -7.96875 15.941406 -7.898438 16.160156 -7.898438 C 16.304688 -7.753906 16.375 -7.609375 16.519531 -7.535156 C 16.664062 -7.390625 16.8125 -7.320312 16.957031 -7.320312 C 17.101562 -7.246094 17.246094 -7.246094 17.460938 -7.246094 C 17.679688 -7.390625 17.898438 -7.609375 18.113281 -7.96875 L 18.695312 -9.347656 C 19.417969 -10.722656 20.144531 -12.390625 20.941406 -14.128906 L 21.808594 -16.085938 C 22.316406 -17.316406 22.96875 -18.550781 23.476562 -19.636719 C 23.621094 -20.144531 23.910156 -20.578125 24.054688 -20.941406 L 24.925781 -22.824219 C 25 -22.605469 25.070312 -22.460938 25.070312 -22.246094 C 25.070312 -21.957031 25 -21.664062 25 -21.375 L 24.417969 -17.390625 C 24.417969 -17.101562 24.417969 -16.738281 24.347656 -16.375 L 24.128906 -13.839844 C 23.984375 -11.957031 23.839844 -9.710938 23.984375 -7.535156 C 23.984375 -7.320312 23.984375 -7.027344 24.054688 -6.738281 C 24.054688 -4.566406 24.417969 -1.957031 25.867188 -0.289062 C 26.15625 0 26.519531 0.21875 26.953125 0.21875 C 27.027344 0.21875 27.101562 0.144531 27.171875 0.144531 C 27.390625 0.652344 27.96875 1.230469 28.550781 1.230469 C 28.765625 1.304688 29.054688 1.160156 29.347656 0.941406 C 29.78125 0.652344 30.070312 0.21875 30.289062 0 C 30.796875 -0.0742188 31.230469 -0.722656 31.375 -1.230469 C 31.230469 -1.59375 31.085938 -2.027344 31.011719 -2.390625 C 31.011719 -2.609375 31.085938 -2.824219 31.085938 -3.042969 L 31.230469 -4.058594 L 31.230469 -4.566406 C 31.230469 -4.855469 31.15625 -5.289062 31.230469 -5.507812 Z M 31.230469 -6.015625 "/></g></g></g><g fill="#000000" fill-opacity="1"><g transform="translate(175.872879, 135.36361)"><g><path d="M 27.535156 -11.59375 C 27.605469 -11.738281 27.605469 -11.882812 27.605469 -12.027344 C 27.605469 -12.171875 27.679688 -12.246094 27.753906 -12.316406 C 27.898438 -12.753906 27.96875 -13.476562 28.1875 -14.128906 L 28.402344 -15.867188 C 28.402344 -16.085938 28.402344 -16.375 28.476562 -16.738281 L 28.476562 -17.609375 C 28.476562 -17.679688 28.550781 -17.898438 28.550781 -17.96875 C 28.476562 -18.113281 28.550781 -18.332031 28.550781 -18.40625 L 28.550781 -21.664062 C 28.476562 -22.753906 28.332031 -23.765625 28.113281 -24.273438 L 28.113281 -24.855469 C 28.042969 -24.925781 27.753906 -26.304688 27.753906 -26.449219 C 27.679688 -26.738281 27.605469 -26.953125 27.460938 -27.171875 L 27.460938 -27.535156 L 26.738281 -28.765625 C 26.519531 -29.128906 26.375 -29.492188 26.15625 -29.78125 L 25.867188 -30.433594 L 25.359375 -31.085938 L 25.289062 -31.085938 C 25.289062 -31.15625 25.289062 -31.15625 25.214844 -31.230469 C 25.214844 -31.375 25.144531 -31.449219 25 -31.59375 C 24.925781 -31.808594 24.636719 -32.027344 24.5625 -32.171875 L 24.203125 -32.605469 C 24.128906 -32.75 23.984375 -32.824219 23.839844 -32.96875 L 23.550781 -33.257812 L 22.96875 -33.621094 C 22.171875 -34.417969 21.160156 -35.144531 20 -35.503906 C 19.78125 -35.648438 19.492188 -35.722656 19.273438 -35.796875 L 18.40625 -36.011719 C 18.113281 -36.085938 17.824219 -36.085938 17.609375 -36.085938 C 17.535156 -36.15625 17.535156 -36.15625 17.460938 -36.15625 L 16.738281 -36.15625 C 16.011719 -36.15625 15.214844 -36.085938 14.492188 -35.941406 C 14.347656 -35.941406 14.203125 -35.867188 14.058594 -35.796875 C 13.113281 -35.578125 12.171875 -35.214844 11.449219 -34.5625 C 10.941406 -34.273438 10.578125 -33.984375 10.144531 -33.546875 L 9.925781 -33.1875 L 9.855469 -33.1875 L 8.621094 -31.953125 L 8.1875 -31.375 C 7.535156 -30.722656 7.101562 -30 6.667969 -29.203125 L 5.871094 -27.824219 C 5.796875 -27.605469 5.578125 -27.460938 5.578125 -27.246094 L 5.21875 -26.953125 C 5.144531 -26.808594 5.070312 -26.664062 4.925781 -26.519531 C 4.78125 -26.304688 4.566406 -26.085938 4.492188 -25.796875 L 4.273438 -25.433594 C 3.769531 -24.273438 3.1875 -22.96875 2.753906 -21.449219 C 2.464844 -20.144531 2.101562 -18.765625 1.957031 -17.390625 C 1.882812 -16.8125 1.8125 -16.230469 1.8125 -15.652344 L 1.8125 -13.914062 C 1.8125 -13.40625 1.8125 -12.824219 1.882812 -12.246094 C 1.882812 -12.027344 1.957031 -11.882812 1.957031 -11.59375 C 2.101562 -10.289062 2.464844 -8.839844 3.042969 -7.609375 L 3.695312 -7.390625 C 3.769531 -6.882812 3.914062 -6.375 4.058594 -5.871094 C 4.128906 -5.507812 4.273438 -5.144531 4.421875 -4.78125 L 5.21875 -3.1875 C 5.289062 -2.972656 5.363281 -2.609375 5.363281 -2.390625 C 5.507812 -1.957031 5.796875 -1.59375 6.015625 -1.230469 L 6.230469 -0.722656 C 6.882812 0.0742188 7.535156 0.722656 8.40625 1.160156 C 8.839844 1.449219 9.417969 1.667969 10 1.882812 L 10.652344 2.101562 C 10.722656 2.171875 11.160156 2.246094 11.230469 2.246094 C 11.664062 2.390625 12.027344 2.390625 12.535156 2.390625 L 13.765625 2.390625 L 14.78125 2.246094 C 15.289062 2.171875 15.722656 2.027344 16.160156 1.882812 C 16.230469 1.882812 16.375 1.8125 16.449219 1.738281 L 16.8125 1.523438 C 16.882812 1.523438 17.679688 1.375 17.753906 1.375 C 18.621094 1.085938 19.417969 0.722656 20.144531 0.21875 C 20.867188 -0.144531 21.519531 -0.652344 22.027344 -1.160156 C 22.605469 -1.667969 23.042969 -2.246094 23.332031 -2.824219 L 23.332031 -2.898438 L 24.203125 -4.128906 C 24.5625 -4.710938 25.070312 -5.363281 25.359375 -6.085938 C 25.578125 -6.519531 25.722656 -6.957031 25.941406 -7.390625 L 26.230469 -7.96875 C 26.304688 -8.261719 26.449219 -8.40625 26.519531 -8.695312 L 26.882812 -9.710938 C 27.171875 -10.144531 27.316406 -10.722656 27.460938 -11.160156 C 27.460938 -11.375 27.460938 -11.519531 27.535156 -11.59375 Z M 24.128906 -13.839844 C 23.984375 -13.40625 23.984375 -12.898438 23.839844 -12.464844 L 23.839844 -12.246094 C 23.765625 -12.246094 23.765625 -12.171875 23.765625 -12.101562 C 23.765625 -11.8125 23.695312 -11.519531 23.621094 -11.230469 C 23.621094 -11.160156 23.621094 -11.015625 23.550781 -10.941406 C 23.476562 -10.433594 23.332031 -9.925781 23.1875 -9.492188 C 23.1875 -9.417969 23.113281 -9.347656 23.113281 -9.347656 L 22.027344 -6.59375 L 21.59375 -5.871094 C 21.449219 -5.578125 21.304688 -5.289062 21.085938 -5.070312 L 20.578125 -4.421875 C 20.359375 -4.203125 20.214844 -3.984375 20 -3.839844 C 19.855469 -3.695312 19.78125 -3.550781 19.5625 -3.476562 C 19.347656 -3.1875 19.058594 -2.898438 18.765625 -2.679688 L 17.316406 -1.59375 C 17.027344 -1.449219 16.664062 -1.304688 16.230469 -1.304688 C 15.867188 -1.160156 15.578125 -1.160156 15.363281 -1.160156 L 15 -1.160156 C 14.855469 -1.160156 14.710938 -1.085938 14.5625 -1.085938 L 14.417969 -1.085938 C 14.273438 -1.085938 14.203125 -1.160156 13.984375 -1.160156 L 13.332031 -1.59375 C 13.261719 -1.667969 13.042969 -1.738281 12.898438 -1.882812 C 12.824219 -1.957031 12.679688 -2.027344 12.609375 -2.171875 L 12.101562 -2.824219 C 11.664062 -3.261719 11.519531 -3.621094 11.304688 -4.058594 C 11.160156 -4.203125 11.085938 -4.421875 11.015625 -4.636719 C 10.652344 -5.363281 10.507812 -6.160156 10.433594 -7.101562 L 10.433594 -7.753906 C 10.433594 -8.117188 10.507812 -8.550781 10.578125 -8.914062 C 10.578125 -9.203125 10.652344 -9.417969 10.722656 -9.636719 C 10.722656 -9.710938 10.867188 -9.710938 10.867188 -9.78125 L 10.578125 -9.78125 C 10.578125 -9.855469 10.507812 -10 10.507812 -10.070312 C 10.433594 -10.722656 10.363281 -11.449219 10.433594 -12.171875 L 10.144531 -12.171875 L 10.070312 -12.246094 L 10.289062 -12.753906 C 10.21875 -13.261719 10.144531 -13.695312 10.21875 -14.203125 L 10.21875 -14.492188 C 10.144531 -14.78125 10.21875 -15 10.289062 -15.363281 L 10.289062 -16.664062 C 10.363281 -17.027344 10.363281 -17.316406 10.363281 -17.679688 L 10.578125 -18.839844 C 10.578125 -19.058594 10.652344 -19.273438 10.722656 -19.492188 C 10.722656 -19.5625 10.941406 -19.710938 10.941406 -19.855469 L 11.160156 -20.433594 L 11.375 -21.375 C 11.519531 -22.027344 11.738281 -22.679688 12.027344 -23.257812 L 12.027344 -23.40625 C 12.101562 -23.40625 12.171875 -23.332031 12.171875 -23.332031 C 12.246094 -23.332031 12.246094 -23.550781 12.246094 -23.550781 L 12.246094 -23.695312 L 12.316406 -23.765625 L 12.246094 -23.765625 C 12.390625 -24.054688 12.609375 -24.203125 12.753906 -24.347656 L 12.753906 -24.78125 C 12.753906 -24.855469 12.753906 -25 12.824219 -25.070312 C 12.824219 -25.144531 12.824219 -25.289062 12.898438 -25.359375 C 13.113281 -25.941406 13.261719 -26.519531 13.621094 -27.101562 C 13.839844 -27.605469 14.203125 -28.113281 14.5625 -28.621094 L 14.925781 -29.273438 C 15.070312 -29.417969 15.363281 -29.5625 15.507812 -29.78125 C 15.796875 -30.144531 16.230469 -30.503906 16.738281 -30.722656 C 17.101562 -30.941406 17.390625 -31.15625 17.824219 -31.300781 L 18.695312 -31.59375 C 18.765625 -31.59375 18.839844 -31.664062 18.910156 -31.664062 C 18.984375 -31.664062 19.128906 -31.738281 19.203125 -31.738281 C 19.492188 -31.738281 19.78125 -31.738281 20.070312 -31.664062 C 20.070312 -31.664062 20.144531 -31.664062 20.214844 -31.59375 L 20.289062 -31.59375 C 20.578125 -31.449219 21.085938 -31.230469 21.304688 -31.011719 C 22.027344 -30.652344 23.1875 -29.492188 23.476562 -28.695312 C 23.621094 -28.402344 23.765625 -28.042969 23.839844 -27.753906 C 23.984375 -27.390625 24.054688 -27.027344 24.128906 -26.738281 C 24.128906 -26.519531 24.492188 -25.214844 24.5625 -25 L 24.925781 -23.40625 C 25 -23.113281 25 -22.898438 25 -22.753906 C 25 -22.535156 25.070312 -22.390625 25 -22.171875 C 25.070312 -21.738281 25.070312 -21.375 25 -21.011719 L 25 -20.289062 C 25 -19.492188 24.855469 -18.839844 24.78125 -18.042969 C 24.78125 -17.824219 24.707031 -17.679688 24.707031 -17.535156 C 24.636719 -16.519531 24.417969 -15.507812 24.273438 -14.636719 C 24.273438 -14.347656 24.128906 -14.128906 24.128906 -13.839844 Z M 24.128906 -13.839844 "/></g></g></g><g fill="#000000" fill-opacity="1"><g transform="translate(206.225369, 135.36361)"><g><path d="M 12.96875 -32.605469 C 12.464844 -34.851562 11.882812 -37.679688 8.914062 -37.679688 C 8.621094 -37.679688 8.117188 -37.460938 7.824219 -37.390625 L 7.898438 -37.605469 C 6.015625 -37.460938 5.507812 -29.78125 5.070312 -27.824219 L 5.289062 -27.679688 C 5.578125 -26.882812 4.273438 -24.5625 4.636719 -23.839844 L 4.566406 -22.898438 L 4.636719 -22.460938 C 3.40625 -15.941406 3.261719 -9.273438 1.8125 -2.679688 C 1.738281 -2.464844 1.667969 -2.246094 1.667969 -2.027344 L 1.667969 -1.738281 C 1.304688 -0.289062 0.871094 2.972656 2.246094 3.261719 L 7.171875 4.273438 C 10.652344 4.273438 12.101562 3.40625 15.070312 1.882812 C 20.578125 -0.941406 29.5625 -16.085938 29.925781 -22.535156 L 29.851562 -22.605469 C 29.925781 -23.1875 29.925781 -23.695312 29.925781 -24.273438 C 29.925781 -25.070312 30.070312 -26.519531 29.707031 -27.246094 C 31.011719 -30.070312 25.214844 -35.070312 22.246094 -35.070312 C 20.507812 -35.070312 15.363281 -34.78125 14.203125 -33.476562 C 13.984375 -33.257812 13.550781 -32.898438 12.96875 -32.605469 Z M 13.332031 -3.261719 C 13.261719 -3.117188 9.566406 -1.230469 9.203125 -1.085938 C 9.636719 -2.320312 12.753906 -20.867188 12.753906 -22.027344 C 12.753906 -23.621094 12.316406 -25.144531 12.898438 -26.738281 C 13.621094 -27.390625 15.214844 -29.054688 15.214844 -30.070312 C 15.652344 -30.578125 16.449219 -31.011719 17.101562 -31.011719 C 19.636719 -31.011719 22.824219 -29.636719 22.824219 -26.449219 C 22.824219 -20.578125 21.160156 -16.230469 19.273438 -10.796875 C 18.332031 -8.042969 15.070312 -5.507812 13.332031 -3.261719 Z M 13.332031 -3.261719 "/></g></g></g><g fill="#000000" fill-opacity="1"><g transform="translate(236.577859, 135.36361)"><g><path d="M 17.753906 -22.246094 C 17.027344 -22.246094 10.433594 -21.449219 10.070312 -21.304688 C 10.363281 -22.460938 11.015625 -22.753906 11.015625 -24.054688 C 11.015625 -24.855469 10.796875 -25.578125 10.507812 -26.304688 C 10.796875 -27.101562 10.070312 -29.273438 10.070312 -30.289062 L 10.144531 -30.578125 C 10.578125 -31.230469 10.652344 -32.101562 10.796875 -32.824219 L 11.085938 -32.824219 C 11.519531 -32.824219 12.464844 -32.535156 12.898438 -32.390625 L 12.96875 -32.460938 L 13.476562 -32.316406 L 13.550781 -32.316406 L 14.058594 -32.96875 L 14.492188 -33.042969 L 14.855469 -32.898438 L 15.363281 -33.042969 C 15.722656 -32.96875 16.085938 -32.898438 16.449219 -32.898438 C 17.535156 -32.898438 18.621094 -33.257812 19.710938 -33.257812 C 20 -33.257812 20.289062 -33.257812 20.578125 -33.1875 C 20.941406 -33.257812 21.375 -33.546875 21.738281 -33.546875 L 22.027344 -33.402344 C 22.679688 -33.476562 22.898438 -34.273438 23.113281 -34.851562 L 22.898438 -35.433594 L 22.96875 -35.648438 C 22.679688 -36.011719 22.171875 -36.519531 21.664062 -36.519531 C 15.578125 -36.519531 9.710938 -36.085938 3.621094 -35.289062 L 3.984375 -35.289062 C 4.855469 -35.289062 3.1875 -34.636719 4.058594 -32.246094 L 4.347656 -32.316406 L 4.925781 -31.375 C 4.710938 -28.1875 3.914062 -25 3.914062 -21.738281 C 3.695312 -21.304688 3.476562 -20.796875 3.839844 -17.824219 C 3.839844 -13.113281 2.101562 -8.042969 2.246094 -3.476562 L 2.609375 -2.535156 C 2.027344 -1.523438 4.058594 0.289062 5.070312 0.289062 C 5.433594 -0.21875 5.941406 -0.722656 6.59375 -0.722656 L 6.8125 -0.941406 C 7.898438 -0.941406 14.78125 -1.230469 15.363281 -1.667969 L 15.722656 -1.59375 C 18.476562 -2.609375 21.957031 -1.375 21.957031 -5.144531 C 21.957031 -5.941406 21.882812 -7.101562 20.867188 -7.101562 C 18.550781 -7.101562 16.160156 -5.363281 13.914062 -5.363281 L 12.027344 -5.433594 L 11.882812 -5.363281 L 11.664062 -5.363281 C 10.652344 -5.363281 9.78125 -4.925781 8.769531 -4.78125 C 9.203125 -6.59375 8.769531 -14.636719 10.363281 -14.636719 L 10.289062 -14.636719 L 10.941406 -16.085938 C 10.867188 -16.519531 10.941406 -17.027344 11.085938 -17.460938 L 10.941406 -17.96875 L 11.085938 -18.332031 L 11.59375 -18.113281 C 12.246094 -18.042969 16.230469 -18.621094 16.738281 -19.058594 C 17.101562 -19.058594 17.460938 -19.058594 17.753906 -18.984375 C 18.476562 -19.203125 18.984375 -20.289062 19.203125 -20.941406 C 19.058594 -21.59375 18.476562 -22.246094 17.753906 -22.246094 Z M 17.753906 -22.246094 "/></g></g></g><g fill="#000000" fill-opacity="1"><g transform="translate(258.961919, 135.36361)"><g><path d="M 10.507812 -26.375 C 10.867188 -27.535156 11.375 -28.765625 11.375 -30 C 11.375 -31.230469 11.375 -32.679688 11.085938 -33.910156 L 11.304688 -34.996094 C 10.796875 -36.882812 8.839844 -38.621094 6.882812 -38.621094 C 5.363281 -38.621094 5.21875 -37.171875 5.21875 -36.011719 C 5.070312 -35.722656 1.230469 -6.59375 1.230469 -4.347656 C 1.230469 -1.957031 -0.796875 -2.535156 -0.796875 -0.144531 C -0.796875 1.523438 1.882812 1.667969 3.042969 1.667969 C 9.058594 1.667969 15.070312 1.085938 20.796875 -0.722656 C 21.085938 -1.015625 21.304688 -1.449219 21.375 -1.8125 C 21.230469 -2.320312 20.867188 -2.824219 20.359375 -2.898438 L 19.492188 -2.679688 L 18.984375 -3.261719 C 17.898438 -3.117188 16.957031 -3.042969 16.085938 -3.042969 C 14.347656 -3.042969 12.898438 -3.261719 10.867188 -3.621094 C 10.363281 -3.40625 9.855469 -3.261719 9.347656 -3.261719 L 9.566406 -3.476562 C 9.058594 -3.476562 8.40625 -3.332031 7.96875 -3.117188 L 8.476562 -3.914062 L 8.40625 -3.914062 C 8.40625 -3.914062 8.476562 -4.203125 8.261719 -4.203125 C 8.261719 -5.144531 8.261719 -6.230469 8.40625 -7.171875 L 8.332031 -7.246094 C 8.332031 -9.636719 9.710938 -12.246094 9.78125 -14.78125 C 9.855469 -17.898438 10.796875 -20.941406 10.796875 -24.054688 C 10.796875 -24.78125 10.796875 -25.433594 10.578125 -26.15625 Z M 10.507812 -26.375 "/></g></g></g></svg>