<svg width="42" height="42" viewBox="0 0 42 42" fill="none" xmlns="http://www.w3.org/2000/svg">
<path d="M21.0075 0.00354315C17.2554 0.00244631 13.5715 1.0066 10.339 2.91157C7.10642 4.81655 4.44323 7.55277 2.62637 10.8357C0.809509 14.1186 -0.0946758 17.8284 0.00784247 21.5791C0.110361 25.3299 1.21584 28.9847 3.20932 32.1635L3.70893 32.9572L1.58647 40.7031L9.53417 38.6196L10.2995 39.0731C13.5349 40.9893 17.226 42.0002 20.9862 42H20.9969C26.5663 42.0009 31.908 39.7893 35.8469 35.8517C39.7857 31.9141 41.9991 26.5731 42 21.0035C42.0009 15.434 39.7894 10.0922 35.8519 6.15326C31.9143 2.21433 26.5734 0.000939853 21.004 0L21.0075 0.00354315ZM33.3525 30.0162C32.888 30.7832 32.2699 31.4459 31.5369 31.9624C30.8039 32.4789 29.972 32.8381 29.0934 33.0175C27.7669 33.245 26.4057 33.16 25.1178 32.7694C23.8964 32.3888 22.6959 31.9441 21.5213 31.4371C17.162 29.2494 13.4464 25.9659 10.7389 21.9089C9.26196 20.0308 8.36544 17.7623 8.15936 15.3819C8.14234 14.3994 8.33015 13.4241 8.71082 12.5181C9.0915 11.6122 9.6567 10.7954 10.3704 10.12C10.5813 9.87935 10.8397 9.68495 11.1294 9.54896C11.419 9.41298 11.7336 9.33836 12.0535 9.32979C12.4716 9.32979 12.8933 9.32979 13.2618 9.35105C13.6515 9.36876 14.1689 9.20223 14.6791 10.4353C15.2106 11.6968 16.472 14.8044 16.6279 15.1197C16.728 15.285 16.7853 15.4727 16.7946 15.6658C16.8038 15.8588 16.7648 16.0511 16.6811 16.2253C16.5221 16.6043 16.3097 16.9587 16.0504 17.2776C15.7315 17.6462 15.3878 18.0997 15.1043 18.3832C14.7854 18.6986 14.4594 19.0387 14.8244 19.6695C15.7723 21.2925 16.9557 22.7661 18.3358 24.042C19.8334 25.3734 21.5516 26.4334 23.4134 27.1744C24.0441 27.4933 24.4126 27.4366 24.7812 27.0149C25.1497 26.5933 26.3579 25.1724 26.7796 24.5416C27.2013 23.9109 27.6194 24.0172 28.1969 24.2263C28.7745 24.4353 31.882 25.9625 32.5127 26.2814C33.1434 26.6004 33.5651 26.7527 33.721 27.0149C33.8938 28.0299 33.7657 29.0732 33.3525 30.0162Z" fill="#111111" fill-opacity="0.81"/>
</svg>
